<svg id="Calque_1" data-name="Calque 1" xmlns="http://www.w3.org/2000/svg" viewBox="0 0 9.37 6.07"><defs><style>.cls-1{fill:#82c5af;}</style></defs><title>arrow</title><path class="cls-1" d="M10.44,5.82H2.24a0.43,0.43,0,0,1-.4-0.4A0.43,0.43,0,0,1,2.24,5h8.2a0.43,0.43,0,0,1,.4.4A0.43,0.43,0,0,1,10.44,5.82Z" transform="translate(-1.84 -2.34)"/><path class="cls-1" d="M8.34,8.42A0.37,0.37,0,0,1,8,8.32a0.45,0.45,0,0,1,0-.5l2.4-2.3L8,2.92a0.45,0.45,0,0,1,0-.5,0.45,0.45,0,0,1,.5,0l2.6,2.9a0.45,0.45,0,0,1,0,.5l-2.6,2.5A0.2,0.2,0,0,1,8.34,8.42Z" transform="translate(-1.84 -2.34)"/></svg>