<?xml version="1.0" encoding="utf-8"?>
<!-- Generator: Adobe Illustrator 19.2.0, SVG Export Plug-In . SVG Version: 6.00 Build 0)  -->
<svg version="1.1" id="Calque_1" xmlns="http://www.w3.org/2000/svg" xmlns:xlink="http://www.w3.org/1999/xlink" x="0px" y="0px"
	 viewBox="0 0 57.8 32" style="enable-background:new 0 0 57.8 32;" xml:space="preserve">
<style type="text/css">
	.st0{fill:none;stroke:#5F6163;stroke-width:1.59;stroke-linecap:round;stroke-linejoin:round;}
	.st1{fill:none;stroke:#82C5AF;stroke-width:1.59;stroke-linecap:round;stroke-linejoin:round;}
</style>
<g id="brand_icon">
	<path id="Stroke_1" class="st0" d="M27.2,14.6L12.8,29c-0.7,0.7-1.7,0.7-2.4,0l-8.9-8.8c-0.7-0.7-0.7-1.7,0-2.4L15.9,3.3L27,3.5
		L27.2,14.6z"/>
	<path id="Stroke_3" class="st0" d="M22.9,10.7c-0.9,0.9-2.3,0.9-3.2,0c-0.9-0.9-0.9-2.3,0-3.2s2.3-0.9,3.2,0c0,0,0,0,0,0l0,0
		C23.8,8.4,23.8,9.8,22.9,10.7z"/>
</g>
<g id="brand_icon_1_">
	<path id="Stroke_1_1_" class="st1" d="M56.3,14.6L41.8,29c-0.7,0.7-1.7,0.7-2.4,0l-8.9-8.8c-0.7-0.7-0.7-1.7,0-2.4L45,3.3l11.1,0.2
		L56.3,14.6z"/>
	<path id="Stroke_3_1_" class="st1" d="M52,10.7c-0.9,0.9-2.3,0.9-3.2,0c-0.9-0.9-0.9-2.3,0-3.2c0.9-0.9,2.3-0.9,3.2,0c0,0,0,0,0,0
		l0,0C52.8,8.4,52.8,9.8,52,10.7z"/>
</g>
</svg>
