<svg id="Calque_1" data-name="Calque 1" xmlns="http://www.w3.org/2000/svg" viewBox="0 0 49.4 31.24"><defs><style>.cls-1,.cls-2{fill:none;stroke-linecap:round;stroke-linejoin:round;stroke-width:1.79px;}.cls-1{stroke:#5f6163;}.cls-2{stroke:#82c5af;}</style></defs><title>dressonactif</title><g id="home_icon" data-name="home icon"><path id="Stroke_1" data-name="Stroke 1" class="cls-1" d="M9.75,3.6A2.39,2.39,0,1,1,12.15,6V8.52" transform="translate(-0.18 -0.31)"/><path id="Stroke_3" data-name="Stroke 3" class="cls-1" d="M20.8,12.7a11,11,0,0,0-17.31,0" transform="translate(-0.18 -0.31)"/><path id="Stroke_5" data-name="Stroke 5" class="cls-1" d="M1.45,16.76a10.93,10.93,0,0,0-.38,2.83,11.07,11.07,0,0,0,22.14,0,10.93,10.93,0,0,0-.38-2.83" transform="translate(-0.18 -0.31)"/></g><g id="home_icon-2" data-name="home icon"><path id="Stroke_1-2" data-name="Stroke 1" class="cls-2" d="M35.22,3.6A2.39,2.39,0,1,1,37.62,6V8.52" transform="translate(-0.18 -0.31)"/><path id="Stroke_3-2" data-name="Stroke 3" class="cls-2" d="M46.27,12.7A11,11,0,0,0,29,12.7" transform="translate(-0.18 -0.31)"/><path id="Stroke_5-2" data-name="Stroke 5" class="cls-2" d="M26.92,16.76a10.93,10.93,0,0,0-.38,2.83,11.07,11.07,0,1,0,22.14,0,10.93,10.93,0,0,0-.38-2.83" transform="translate(-0.18 -0.31)"/></g></svg>