<?xml version="1.0" encoding="utf-8"?>
<!-- Generator: Adobe Illustrator 19.2.0, SVG Export Plug-In . SVG Version: 6.00 Build 0)  -->
<svg version="1.1" id="Calque_1" xmlns="http://www.w3.org/2000/svg" xmlns:xlink="http://www.w3.org/1999/xlink" x="0px" y="0px"
	 viewBox="0 0 57.8 32" style="enable-background:new 0 0 57.8 32;" xml:space="preserve">
<style type="text/css">
	.st0{fill:none;stroke:#5F6163;stroke-width:1.54;stroke-linecap:round;stroke-linejoin:round;}
	.st1{fill:none;stroke:#82C5AF;stroke-width:1.54;stroke-linecap:round;stroke-linejoin:round;}
</style>
<path id="favorite_icon" class="st0" d="M4.4,17.8L4.4,17.8c-1.9-1.5-3.1-3.8-3.1-6.2C1.3,7.5,4.5,4.1,8.6,4c2.4,0,4.6,1.3,5.9,3.3
	C15.7,5.3,18,4,20.4,4c4.1,0.1,7.3,3.5,7.2,7.6c0,2.4-1.1,4.7-3,6.2l0,0L14.4,28.1L4.4,17.8z"/>
<path id="favorite_icon_1_" class="st1" d="M33,17.8L33,17.8c-1.9-1.5-3.1-3.8-3.1-6.2C29.8,7.5,33,4.1,37.1,4
	c2.4,0,4.6,1.3,5.9,3.3c1.3-2,3.5-3.3,5.9-3.3c4.1,0.1,7.3,3.5,7.2,7.6c0,2.4-1.1,4.7-3,6.2l0,0L43,28.1L33,17.8z"/>
</svg>
