<svg xmlns="http://www.w3.org/2000/svg" width="35.225" height="20.854" viewBox="0 0 35.225 20.854">
  <g id="friends_icon" data-name="friends icon" transform="translate(0.75 0.75)">
    <path id="Stroke_1" data-name="Stroke 1" d="M10.346,5.173A5.173,5.173,0,1,1,5.172,0,5.173,5.173,0,0,1,10.346,5.173Z" transform="translate(11.673 1.955)" fill="none" stroke="#8dd4bd" stroke-linecap="round" stroke-linejoin="round" stroke-miterlimit="10" stroke-width="1.5"/>
    <path id="Stroke_3" data-name="Stroke 3" d="M16.894,4.895h0A4.909,4.909,0,0,0,12,0h-7.1A4.91,4.91,0,0,0,0,4.895" transform="translate(8.398 14.459)" fill="none" stroke="#8dd4bd" stroke-linecap="round" stroke-linejoin="round" stroke-miterlimit="10" stroke-width="1.5"/>
    <path id="Stroke_5" data-name="Stroke 5" d="M7.57,3.785A3.785,3.785,0,1,1,3.785,0,3.785,3.785,0,0,1,7.57,3.785Z" transform="translate(23.759)" fill="none" stroke="#8dd4bd" stroke-linecap="round" stroke-linejoin="round" stroke-miterlimit="10" stroke-width="1.5"/>
    <path id="Stroke_7" data-name="Stroke 7" d="M8.78,3.582h0A3.593,3.593,0,0,0,5.2,0H0" transform="translate(24.945 9.149)" fill="none" stroke="#8dd4bd" stroke-linecap="round" stroke-linejoin="round" stroke-miterlimit="10" stroke-width="1.5"/>
    <path id="Stroke_9" data-name="Stroke 9" d="M7.57,3.785A3.785,3.785,0,1,1,3.785,0,3.784,3.784,0,0,1,7.57,3.785Z" transform="translate(2.396)" fill="none" stroke="#8dd4bd" stroke-linecap="round" stroke-linejoin="round" stroke-miterlimit="10" stroke-width="1.5"/>
    <path id="Stroke_11" data-name="Stroke 11" d="M0,3.582H0A3.593,3.593,0,0,1,3.582,0h5.2" transform="translate(0 9.149)" fill="none" stroke="#8dd4bd" stroke-linecap="round" stroke-linejoin="round" stroke-miterlimit="10" stroke-width="1.5"/>
  </g>
</svg>
