<?xml version="1.0" encoding="utf-8"?>
<!-- Generator: Adobe Illustrator 19.2.0, SVG Export Plug-In . SVG Version: 6.00 Build 0)  -->
<svg version="1.1" id="Capa_1" xmlns="http://www.w3.org/2000/svg" xmlns:xlink="http://www.w3.org/1999/xlink" x="0px" y="0px"
	 viewBox="0 0 512 512" style="enable-background:new 0 0 512 512;" xml:space="preserve">
<style type="text/css">
	.st0{fill:#FFFFFF;stroke:#FFFFFF;stroke-width:1.5;stroke-miterlimit:10;}
	.st1{fill:#FFFFFF;}
</style>
<g>
	<g>
		<path class="st0" d="M481.4,428.8c-25.1-50.2-38.3-106.3-38.3-162.4v-30.1c0-86.1-58.5-158.8-137.8-180.5v-6.6
			C305.2,22.1,283.1,0,256,0s-49.2,22.1-49.2,49.2v6.6C127.4,77.5,68.9,150.2,68.9,236.3v30.1c0,56.1-13.3,112.3-38.3,162.4
			c-1.5,3.1-1.4,6.7,0.4,9.6c1.8,2.9,5,4.7,8.4,4.7h138.8C182.9,481.9,216,512,256,512s73.1-30.1,77.8-68.9h138.8
			c3.4,0,6.6-1.8,8.4-4.7C482.8,435.5,482.9,431.9,481.4,428.8z M226.5,49.2c0-16.3,13.3-29.5,29.5-29.5s29.5,13.3,29.5,29.5v2.3
			c-0.2,0-0.5-0.1-0.7-0.1c-0.4-0.1-0.8-0.1-1.2-0.2c-1-0.1-2-0.3-3-0.4c-0.5-0.1-1.1-0.1-1.6-0.2c-0.9-0.1-1.9-0.2-2.8-0.3
			c-0.5-0.1-1-0.1-1.5-0.2c-1.4-0.1-2.7-0.3-4.1-0.4c-0.5,0-0.9-0.1-1.4-0.1c-1-0.1-2-0.1-2.9-0.2c-0.5,0-1.1-0.1-1.6-0.1
			c-1,0-2-0.1-2.9-0.1c-0.5,0-1,0-1.4,0c-1.4,0-2.9-0.1-4.3-0.1s-2.9,0-4.3,0.1c-0.5,0-1,0-1.4,0c-1,0-2,0.1-2.9,0.1
			c-0.5,0-1.1,0.1-1.6,0.1c-1,0.1-2,0.1-2.9,0.2c-0.5,0-0.9,0.1-1.4,0.1c-1.4,0.1-2.7,0.2-4.1,0.4c-0.5,0-1,0.1-1.5,0.2
			c-0.9,0.1-1.9,0.2-2.8,0.3c-0.5,0.1-1.1,0.1-1.6,0.2c-1,0.1-2,0.3-3,0.4c-0.4,0.1-0.8,0.1-1.2,0.2c-0.2,0-0.5,0.1-0.7,0.1
			L226.5,49.2L226.5,49.2z M256,492.3c-29.2,0-53.4-21.3-58-49.2h116C309.4,471,285.2,492.3,256,492.3z M54.9,423.4
			c2.9-6.5,5.6-13.1,8.2-19.7h55c5.4,0,9.8-4.4,9.8-9.8c0-5.4-4.4-9.8-9.8-9.8H70.1c12.2-37.9,18.6-77.8,18.6-117.6v-30.1
			c0-80.6,57.2-148,133.2-163.9c0.2,0,0.5-0.1,0.7-0.1c0.9-0.2,1.8-0.4,2.7-0.5c0.6-0.1,1.3-0.2,1.9-0.4c0.6-0.1,1.3-0.2,1.9-0.3
			c1-0.2,1.9-0.3,2.9-0.4c0.4-0.1,0.8-0.1,1.2-0.2c1.3-0.2,2.6-0.3,3.9-0.5c0.1,0,0.2,0,0.3,0c12.4-1.4,24.9-1.4,37.3,0
			c0.1,0,0.2,0,0.3,0c1.3,0.1,2.6,0.3,3.9,0.5c0.4,0.1,0.8,0.1,1.2,0.2c1,0.1,1.9,0.3,2.9,0.4c0.6,0.1,1.3,0.2,1.9,0.3
			c0.6,0.1,1.3,0.2,1.9,0.4c0.9,0.2,1.8,0.3,2.7,0.5c0.2,0,0.5,0.1,0.7,0.1c75.9,15.8,133.2,83.3,133.2,163.9v30.1
			c0,53.9,11.6,107.8,33.7,157L54.9,423.4L54.9,423.4z"/>
	</g>
</g>
<g>
	<g>
		<path class="st1" d="M157.3,391.9c-0.1-0.6-0.3-1.2-0.6-1.8c-0.2-0.6-0.6-1.2-0.9-1.7c-0.4-0.5-0.8-1-1.2-1.5
			c-0.5-0.5-1-0.9-1.5-1.2c-0.5-0.4-1.1-0.7-1.7-0.9c-0.6-0.2-1.2-0.4-1.8-0.6c-1.3-0.3-2.6-0.3-3.8,0c-0.6,0.1-1.2,0.3-1.8,0.6
			c-0.6,0.2-1.2,0.6-1.7,0.9c-0.5,0.4-1,0.8-1.5,1.2c-0.5,0.5-0.9,1-1.2,1.5c-0.4,0.5-0.7,1.1-0.9,1.7c-0.2,0.6-0.4,1.2-0.6,1.8
			c-0.1,0.6-0.2,1.3-0.2,1.9s0.1,1.3,0.2,1.9c0.1,0.6,0.3,1.2,0.6,1.8c0.2,0.6,0.6,1.2,0.9,1.7c0.4,0.5,0.8,1,1.2,1.5
			c0.5,0.5,1,0.9,1.5,1.2c0.5,0.4,1.1,0.7,1.7,0.9c0.6,0.2,1.2,0.4,1.8,0.6c0.6,0.1,1.3,0.2,1.9,0.2s1.3-0.1,1.9-0.2
			c0.6-0.1,1.2-0.3,1.8-0.6c0.6-0.2,1.2-0.6,1.7-0.9c0.5-0.4,1-0.8,1.5-1.2c0.5-0.5,0.9-1,1.2-1.5c0.4-0.5,0.7-1.1,0.9-1.7
			c0.2-0.6,0.4-1.2,0.6-1.8c0.1-0.6,0.2-1.3,0.2-1.9C157.5,393.2,157.5,392.6,157.3,391.9z"/>
	</g>
</g>
</svg>
