<?xml version="1.0" encoding="utf-8"?>
<!-- Generator: Adobe Illustrator 19.2.0, SVG Export Plug-In . SVG Version: 6.00 Build 0)  -->
<svg version="1.1" id="Calque_1" xmlns="http://www.w3.org/2000/svg" xmlns:xlink="http://www.w3.org/1999/xlink" x="0px" y="0px"
	 viewBox="0 0 57.8 32" style="enable-background:new 0 0 57.8 32;" xml:space="preserve">
<style type="text/css">
	.st0{fill:none;stroke:#5F6163;stroke-width:1.44;stroke-linecap:round;stroke-linejoin:round;}
	.st1{fill:none;stroke:#82C5AF;stroke-width:1.44;stroke-linecap:round;stroke-linejoin:round;}
</style>
<g id="outfit_icon">
	<path id="Stroke_1" class="st0" d="M6.8,13.9L2.1,9.1l5.7-5l3.9-1.5c0,1.9,1.6,3.5,3.5,3.5l0,0c1.9,0,3.5-1.6,3.5-3.5c0,0,0,0,0,0
		l3.9,1.5l5.7,5l-4.7,4.8"/>
	<path id="Stroke_3" class="st0" d="M6.8,10v16.4h16.9V10"/>
</g>
<g id="outfit_icon_1_">
	<path id="Stroke_1_1_" class="st1" d="M35.1,13.9l-4.6-4.8l5.7-5L40,2.6c0,1.9,1.6,3.5,3.5,3.5l0,0c1.9,0,3.5-1.6,3.5-3.5
		c0,0,0,0,0,0l3.9,1.5l5.7,5L52,13.9"/>
	<path id="Stroke_3_1_" class="st1" d="M35.1,10v16.4H52V10"/>
</g>
</svg>
