<?xml version="1.0" encoding="utf-8"?>
<!-- Generator: Adobe Illustrator 19.2.0, SVG Export Plug-In . SVG Version: 6.00 Build 0)  -->
<svg version="1.1" id="Calque_1" xmlns="http://www.w3.org/2000/svg" xmlns:xlink="http://www.w3.org/1999/xlink" x="0px" y="0px"
	 viewBox="0 0 57.8 32" style="enable-background:new 0 0 57.8 32;" xml:space="preserve">
<style type="text/css">
	.st0{fill:none;stroke:#5F6163;stroke-width:1.58;stroke-linecap:round;stroke-linejoin:round;}
	.st1{fill:none;stroke:#82C5AF;stroke-width:1.58;stroke-linecap:round;stroke-linejoin:round;}
</style>
<g id="scan_icon">
	<path id="Stroke_1" class="st0" d="M6,14.8h7.8V7H6V14.8z"/>
	<path id="Stroke_2" class="st0" d="M8.3,12.4h3.1V9.3H8.3V12.4z"/>
	<path id="Stroke_3" class="st0" d="M15.9,14.8h7.9V7h-7.9V14.8z"/>
	<path id="Stroke_4" class="st0" d="M18.2,12.4h3.1V9.3h-3.1V12.4z"/>
	<path id="Stroke_5" class="st0" d="M6,24.7h7.8v-7.9H6V24.7z"/>
	<path id="Stroke_6" class="st0" d="M8.3,22.3h3.1v-3.1H8.3V22.3z"/>
	<path id="Stroke_7" class="st0" d="M15.9,19.4v5.3h3.3"/>
	<path id="Stroke_8" class="st0" d="M15.9,16.9H19v5.5h3.9v2.4"/>
	<path id="Stroke_9" class="st0" d="M22.1,16.9v2.6h1.6"/>
	<g id="Group_18">
		<path id="Stroke_10" class="st0" d="M23.4,2.8h4.5v4.5"/>
		<path id="Stroke_12" class="st0" d="M1.8,7.2V2.8h4.5"/>
		<path id="Stroke_14" class="st0" d="M6.2,28.9H1.8v-4.5"/>
		<path id="Stroke_16" class="st0" d="M27.9,24.4v4.5h-4.5"/>
	</g>
</g>
<g id="scan_icon_1_">
	<path id="Stroke_1_1_" class="st1" d="M34.9,14.8h7.8V7h-7.8V14.8z"/>
	<path id="Stroke_2_1_" class="st1" d="M37.2,12.4h3.1V9.3h-3.1V12.4z"/>
	<path id="Stroke_3_1_" class="st1" d="M44.7,14.8h7.9V7h-7.9V14.8z"/>
	<path id="Stroke_4_1_" class="st1" d="M47.1,12.4h3.1V9.3h-3.1V12.4z"/>
	<path id="Stroke_5_1_" class="st1" d="M34.9,24.7h7.8v-7.9h-7.8V24.7z"/>
	<path id="Stroke_6_1_" class="st1" d="M37.2,22.3h3.1v-3.1h-3.1V22.3z"/>
	<path id="Stroke_7_1_" class="st1" d="M44.7,19.4v5.3H48"/>
	<path id="Stroke_8_1_" class="st1" d="M44.7,16.9h3.1v5.5h3.9v2.4"/>
	<path id="Stroke_9_1_" class="st1" d="M51,16.9v2.6h1.6"/>
	<g id="Group_18_1_">
		<path id="Stroke_10_1_" class="st1" d="M52.3,2.8h4.5v4.5"/>
		<path id="Stroke_12_1_" class="st1" d="M30.7,7.2V2.8h4.5"/>
		<path id="Stroke_14_1_" class="st1" d="M35.1,28.9h-4.5v-4.5"/>
		<path id="Stroke_16_1_" class="st1" d="M56.8,24.4v4.5h-4.5"/>
	</g>
</g>
</svg>
